<svg width="512" height="512" viewBox="0 0 512 512" xmlns="http://www.w3.org/2000/svg">
  <defs>
    <linearGradient id="bg" x1="0%" y1="0%" x2="100%" y2="100%">
      <stop offset="0%" style="stop-color:#1a1a1a;stop-opacity:1" />
      <stop offset="100%" style="stop-color:#2d2d2d;stop-opacity:1" />
    </linearGradient>
    <linearGradient id="book" x1="0%" y1="0%" x2="100%" y2="100%">
      <stop offset="0%" style="stop-color:#4a90e2;stop-opacity:1" />
      <stop offset="100%" style="stop-color:#357abd;stop-opacity:1" />
    </linearGradient>
  </defs>
  
  <!-- Background -->
  <rect width="512" height="512" rx="80" fill="url(#bg)"/>
  
  <!-- Book -->
  <rect x="120" y="100" width="280" height="320" rx="20" fill="url(#book)" stroke="#2c5aa0" stroke-width="4"/>
  
  <!-- Pages -->
  <rect x="140" y="120" width="240" height="280" rx="10" fill="#ffffff" opacity="0.9"/>
  
  <!-- Text Lines -->
  <rect x="160" y="160" width="200" height="8" rx="4" fill="#4a90e2" opacity="0.7"/>
  <rect x="160" y="180" width="180" height="8" rx="4" fill="#4a90e2" opacity="0.5"/>
  <rect x="160" y="200" width="220" height="8" rx="4" fill="#4a90e2" opacity="0.6"/>
  <rect x="160" y="220" width="170" height="8" rx="4" fill="#4a90e2" opacity="0.4"/>
  
  <!-- AI Sparkle -->
  <circle cx="380" cy="140" r="8" fill="#ffd700"/>
  <circle cx="390" cy="160" r="6" fill="#ffd700" opacity="0.8"/>
  <circle cx="370" cy="180" r="7" fill="#ffd700" opacity="0.9"/>
  
  <!-- Pen -->
  <rect x="320" y="320" width="4" height="60" rx="2" fill="#e74c3c"/>
  <rect x="318" y="375" width="8" height="8" rx="2" fill="#34495e"/>
</svg>
